<?xml version="1.0" encoding="UTF-8"?>
<svg xmlns="http://www.w3.org/2000/svg" xmlns:xlink="http://www.w3.org/1999/xlink" xmlns:svgjs="http://svgjs.com/svgjs" version="1.1" width="512" height="512" x="0" y="0" viewBox="0 0 512 512" style="enable-background:new 0 0 512 512" xml:space="preserve" class="">
  <g>
    <g xmlns="http://www.w3.org/2000/svg">
      <path d="m437.954 431.055c39.184-43.431 63.045-100.954 63.045-164.054 0-135.309-109.69-244.999-244.999-244.999s-244.999 109.69-244.999 244.999c0 63.101 23.861 120.623 63.045 164.054z" fill="#4f1dff" data-original="#ffdd40" style="" class=""/>
      <path d="m424.989 433.055v-375.882c0-31.445-25.728-57.173-57.173-57.173h-223.632c-31.445 0-57.173 25.728-57.173 57.173v375.883h337.978z" fill="#41416b" data-original="#41416b" style="" class=""/>
      <path d="m269.148 187.14c-47.453-18.471-40.71-66.202-39.143-74.513.163-.862.144-1.744-.046-2.6l-2.919-13.115c-.336-1.512-1.212-2.852-2.448-3.786-18.008-13.619-10.414-28.111-5.436-34.556 1.669-2.161 1.827-5.119.393-7.443-15.151-24.538-2.667-39.758 6.213-46.694 1.466-1.145 2.299-2.759 2.493-4.433h-84.071c-31.445 0-57.173 25.728-57.173 57.173v375.883h186.272v-239.784c0-2.695-1.623-5.154-4.135-6.132z" fill="#35355e" data-original="#35355e" style=""/>
      <path d="m367.816 30.725h-36.288c-6.775 0-12.864 3.78-16.258 9.644-5.1 8.809-14.629 14.768-25.486 14.768h-67.568c-10.858 0-20.387-5.96-25.486-14.768-3.394-5.864-9.483-9.644-16.258-9.644h-36.287c-14.546 0-26.448 11.901-26.448 26.448v412.096c39.353 26.953 86.963 42.731 138.263 42.731s98.91-15.778 138.264-42.731v-412.096c0-14.546-11.902-26.448-26.448-26.448z" fill="#746bf9" data-original="#746bf9" style="" class=""/>
      <path d="m287.099 507.784c-30.939-21.097-18.008-50.195-14.562-56.71.494-.933.746-1.969.746-3.025v-254.777c0-2.696-1.623-5.154-4.135-6.132-47.453-18.471-40.71-66.202-39.143-74.513.163-.862.144-1.744-.046-2.6l-2.919-13.115c-.336-1.512-1.212-2.852-2.448-3.786-18.008-13.619-10.414-28.111-5.436-34.556.798-1.034 1.241-2.25 1.339-3.492-10.136-.593-18.936-6.37-23.764-14.709-3.394-5.864-9.483-9.644-16.258-9.644h-36.287c-14.546 0-26.448 11.901-26.448 26.448v412.096c39.352 26.953 86.961 42.731 138.262 42.731 11.195 0 22.214-.752 33.01-2.207-.486-.783-1.127-1.474-1.911-2.009z" fill="#6147eb" data-original="#6045f3" style="" class=""/>
      <path d="m438.841 430.055 28.725-185.26c.609-3.93-1.839-7.687-5.681-8.716l-42.604-11.416c-2.919-.782-6.077.141-7.99 2.479-5.309 6.485-14.104 9.631-22.725 7.321s-14.665-9.433-16.02-17.703c-.489-2.982-2.762-5.36-5.68-6.142l-21.038-5.637 25.48 235.076c.561 5.173-3.491 9.688-8.694 9.688h-44.824l75.468 20.221c16.804-11.386 32.11-24.813 45.583-39.911z" fill="#ff4155" data-original="#ff4155" style="" class=""/>
      <path d="m438.841 430.055 8.743-56.386c-82.749 7.408-90.061-60.794-90.073-60.903l13.797 127.29c.561 5.173-3.491 9.688-8.694 9.688h-44.824l75.468 20.221c16.804-11.385 32.11-24.812 45.583-39.91z" fill="#e80054" data-original="#e80054" style="" class=""/>
      <path d="m140.692 440.057 25.48-235.076-21.038 5.637c-2.919.782-5.191 3.16-5.68 6.142-1.355 8.27-7.399 15.393-16.02 17.703s-17.417-.836-22.725-7.321c-1.914-2.338-5.072-3.262-7.991-2.479l-42.604 11.416c-3.841 1.029-6.29 4.787-5.681 8.716l28.725 185.26c13.474 15.098 28.779 28.525 45.583 39.911l75.468-20.221h-44.824c-5.201 0-9.254-4.515-8.693-9.688z" fill="#49dafc" data-original="#49dafc" style="" class=""/>
      <path d="m152.476 331.343-1.021-1.081c-67.943-4.494-66.918-72.679-66.918-72.679l-11.739-27.583-22.684 6.078c-3.841 1.029-6.29 4.787-5.681 8.716l28.725 185.26c13.473 15.098 28.779 28.525 45.583 39.911l75.468-20.221h-44.824c-5.202 0-9.255-4.515-8.694-9.688z" fill="#00adf4" data-original="#00adf4" style="" class=""/>
      <g>
        <path d="m69.058 255.283-16.116-60.145c-2.419-9.027-1.178-18.456 3.495-26.551 4.673-8.094 12.218-13.882 21.245-16.302l44.285-11.865c9.026-2.419 18.455-1.179 26.55 3.495 8.057 4.651 13.831 12.149 16.27 21.122l14.231 47.697c1.348 4.517-1.222 9.271-5.739 10.618-4.516 1.35-9.271-1.221-10.618-5.738l-14.263-47.806c-.023-.077-.044-.155-.066-.231-2.558-9.545-12.406-15.227-21.947-12.671l-44.285 11.865c-4.623 1.239-8.488 4.204-10.881 8.35-2.393 4.145-3.029 8.974-1.79 13.597l16.116 60.145c1.22 4.553-1.482 9.234-6.035 10.453-4.533 1.221-9.229-1.466-10.452-6.033z" fill="#e3e7fc" data-original="#e3e7fc" style="" class=""/>
      </g>
      <g>
        <path d="m434.704 261.611c-5.612 0-9.701-5.328-8.25-10.746l16.115-60.145c2.558-9.544-3.127-19.389-12.671-21.947l-44.284-11.865c-4.625-1.239-9.453-.602-13.598 1.79-4.145 2.393-7.11 6.257-8.349 10.881-.022.079-.044.159-.068.238l-14.078 47.047c-1.351 4.516-6.108 7.077-10.623 5.73-4.516-1.351-7.081-6.108-5.73-10.624l14.045-46.937c2.439-8.97 8.213-16.466 16.268-21.117 8.093-4.674 17.523-5.914 26.551-3.495l44.284 11.865c18.636 4.993 29.735 24.217 24.742 42.853l-16.116 60.145c-1.021 3.812-4.47 6.327-8.238 6.327z" fill="#e3e7fc" data-original="#e3e7fc" style="" class=""/>
        <path d="m385.29 139.495c-7.528-.951-15.123.56-21.807 4.42-8.056 4.651-13.829 12.146-16.268 21.117l-14.045 46.937c-1.351 4.516 1.214 9.273 5.73 10.624 4.515 1.347 9.272-1.214 10.623-5.73l14.078-47.047c.024-.079.046-.159.068-.238 1.239-4.624 4.204-8.488 8.349-10.881 4.146-2.393 8.974-3.029 13.598-1.79-9.147-9.145-2.053-15.979-.326-17.412z" fill="#c8cefc" data-original="#c8cefc" style="" class=""/>
      </g>
      <g>
        <g>
          <path d="m151.207 103.228c-6.285 0-11.38-5.095-11.38-11.38v-7.586c0-6.285 5.095-11.38 11.38-11.38s11.38 5.095 11.38 11.38v7.586c0 6.285-5.095 11.38-11.38 11.38z" fill="#8892fe" data-original="#8892fe" style=""/>
        </g>
      </g>
      <g>
        <g>
          <g>
            <path d="m183.85 103.228c-6.285 0-11.38-5.095-11.38-11.38v-20.372c0-6.284 5.095-11.38 11.38-11.38s11.38 5.095 11.38 11.38v20.372c0 6.285-5.095 11.38-11.38 11.38z" fill="#8892fe" data-original="#8892fe" style=""/>
          </g>
        </g>
      </g>
      <g>
        <g>
          <g>
            <path d="m360.793 89.573h-23.171c-6.285 0-11.38-5.095-11.38-11.38s5.095-11.38 11.38-11.38h23.171c6.285 0 11.38 5.095 11.38 11.38s-5.096 11.38-11.38 11.38z" fill="#8892fe" data-original="#8892fe" style=""/>
          </g>
        </g>
      </g>
      <g>
        <path d="m372.446 440.057-27.761-256.121c-.481-4.439-4.229-7.803-8.694-7.803h-49.526c-3.392 0-6.549 1.919-7.945 5.011-3.873 8.576-12.498 14.545-22.519 14.545s-18.646-5.969-22.519-14.545c-1.396-3.092-4.553-5.011-7.946-5.011h-49.526c-4.465 0-8.213 3.363-8.695 7.803l-27.762 256.121c-.561 5.172 3.491 9.688 8.694 9.688h215.503c5.204 0 9.257-4.515 8.696-9.688z" fill="#4f1dff" data-original="#ffdd40" style="" class=""/>
      </g>
      <path d="m347.09 448.312c-44.53-23.609-35.846-63.067-33.614-70.862.27-.944.309-1.941.1-2.9-9.379-42.973-37.91-41.255-45.045-40.116-1.736.277-3.556-.19-4.832-1.401-1.474-1.398-1.689-3.134-1.587-4.402.109-1.368-.334-2.724-1.129-3.842l-9.438-13.284c-.782-1.101-1.904-1.943-3.211-2.284-3.579-.932-3.229-4.847-2.926-6.446.102-.537.131-1.073.085-1.618-.325-3.841-1.842-18.867-6.594-32.4-5.5-15.667-26.25-21.25-26.25-21.25-21.875-6.25-14.327-30.44-12.458-35.551.246-.672.365-1.383.363-2.098l-.102-33.722h-24.442c-4.465 0-8.213 3.363-8.695 7.803l-27.762 256.121c-.561 5.172 3.491 9.688 8.694 9.688h200.613c-.487-.58-1.083-1.072-1.77-1.436z" fill="#37199f" data-original="#ffb332" style="" class=""/>
      <g>
        <path d="m311.442 211.002c-4.714 0-8.535-3.821-8.535-8.535v-69.914c0-11.673-9.496-21.169-21.169-21.169h-51.478c-11.673 0-21.169 9.496-21.169 21.169v69.914c0 4.714-3.821 8.535-8.535 8.535s-8.535-3.821-8.535-8.535v-69.914c0-21.085 17.154-38.239 38.239-38.239h51.478c21.085 0 38.238 17.154 38.238 38.239v69.914c.001 4.715-3.82 8.535-8.534 8.535z" fill="#e3e7fc" data-original="#e3e7fc" style="" class=""/>
      </g>
      <g>
        <path d="m232.665 383.504c-1.175 0-2.368-.229-3.519-.711-4.636-1.946-6.817-7.281-4.871-11.918l48.222-114.902c1.945-4.636 7.282-6.814 11.917-4.872 4.636 1.946 6.817 7.281 4.871 11.918l-48.222 114.902c-1.462 3.485-4.841 5.583-8.398 5.583z" fill="#ff4155" data-original="#ff4155" style="" class=""/>
      </g>
      <g>
        <path d="m223.437 312.764c-16.768 0-30.411-15.191-30.411-33.864 0-18.672 13.643-33.864 30.411-33.864s30.411 15.192 30.411 33.864c0 18.673-13.642 33.864-30.411 33.864zm0-49.519c-6.615 0-12.203 7.17-12.203 15.656s5.588 15.656 12.203 15.656 12.203-7.17 12.203-15.656-5.588-15.656-12.203-15.656z" fill="#ff4155" data-original="#ff4155" style="" class=""/>
      </g>
      <g>
        <path d="m288.563 391.324c-16.768 0-30.411-15.191-30.411-33.863s13.642-33.864 30.411-33.864 30.411 15.191 30.411 33.864c0 18.672-13.643 33.863-30.411 33.863zm0-49.519c-6.615 0-12.203 7.17-12.203 15.656s5.588 15.656 12.203 15.656 12.203-7.17 12.203-15.656-5.588-15.656-12.203-15.656z" fill="#ff4155" data-original="#ff4155" style="" class=""/>
      </g>
      <g fill="#c8cefc">
        <path d="m69.43 190.72c-1.239-4.623-.603-9.452 1.79-13.597-13.679 0-12.435-12.076-12.435-12.076-.844 1.126-1.633 2.302-2.348 3.54-4.673 8.095-5.915 17.524-3.496 26.551l16.116 60.145c1.224 4.567 5.919 7.254 10.453 6.034 4.553-1.219 7.255-5.9 6.036-10.453z" fill="#c8cefc" data-original="#c8cefc" style="" class=""/>
        <path d="m226.503 94.501c-19.327 1.894-34.481 18.236-34.481 38.052v69.914c0 4.714 3.821 8.535 8.535 8.535 4.713 0 8.535-3.821 8.535-8.535v-69.914c0-11.673 9.497-21.169 21.169-21.169-10.948-6.558-4.799-15.508-3.758-16.883z" fill="#c8cefc" data-original="#c8cefc" style="" class=""/>
      </g>
    </g>
  </g>
</svg>
