<?xml version="1.0" encoding="UTF-8"?>
<svg xmlns="http://www.w3.org/2000/svg" xmlns:xlink="http://www.w3.org/1999/xlink" xmlns:svgjs="http://svgjs.com/svgjs" version="1.1" width="512" height="512" x="0" y="0" viewBox="0 0 497.735 497.735" style="enable-background:new 0 0 512 512" xml:space="preserve" class="">
  <g>
<g xmlns="http://www.w3.org/2000/svg">
	<path style="" d="M497.735,248.867c0,135.31-109.69,245-245,245c-8.22,0-16.35-0.4-24.36-1.2   c-66.18-6.53-124.63-39.4-164.71-87.98c-0.35-0.42-0.7-0.85-1.04-1.27c-9.38-11.52-17.73-23.91-24.91-37.02   c-3.78-6.91-7.24-14.02-10.36-21.31c-12.63-29.54-19.62-62.07-19.62-96.22c0-135.31,109.69-245,245-245   S497.735,113.557,497.735,248.867z" fill="#4f1dff" data-original="#44d6be" class=""/>
	<path style="" d="M155.617,346.398h219.672c6.837,12.051,12.499,24.855,16.835,38.258H155.617V346.398z" fill="#bf7c5e" data-original="#bf7c5e" class=""/>
	<rect x="154.057" y="319.152" style="" width="100.652" height="74.051" fill="#f73a65" data-original="#f73a65" class=""/>
	<g>
		<rect x="111.171" y="300.289" style="" width="155.284" height="39.991" fill="#f6c2aa" data-original="#f6c2aa" class=""/>
		<rect x="111.171" y="325.834" style="" width="155.284" height="14.446" fill="#ea9d88" data-original="#ea9d88" class=""/>
		<path style="" d="M464.105,372.807c-0.31,0.52-0.61,1.06-0.93,1.58c-1.99,3.33-4.06,6.61-6.21,9.84    c-8.78,13.23-18.81,25.56-29.93,36.81c-32.87,33.27-75.18,57.18-122.59,67.36c-6.28,1.35-12.66,2.46-19.11,3.32v-117.5    c0-8.93-7.19-16.2-16.12-16.2h-20.044v-57.73h83.184v0.01c0.82-0.09,1.65-0.18,2.49-0.25c2.01-0.17,4.04-0.25,6.1-0.25h48.57    c5.69,0,11.23,0.63,16.55,1.84c0.04,0,0.1,0.02,0.15,0.03C438.885,309.137,463.385,338.057,464.105,372.807z" fill="#6d2075" data-original="#6d2075" class=""/>
		<path style="" d="M464.115,372.787c-0.31,0.53-0.62,1.07-0.94,1.6c-10.15,16.99-22.31,32.65-36.14,46.65    c-32.87,33.27-75.18,57.18-122.59,67.36v-114.01c0-5.29,0.55-10.45,1.6-15.42c2.05-9.77,6.01-18.82,11.48-26.77    c0.21-0.33,0.44-0.64,0.66-0.96c4.14-5.82,9.09-11.02,14.69-15.43c12.7-10.03,28.74-16.01,46.17-16.01h10.47    c3.36,0,6.67,0.22,9.92,0.66c5.84,0.77,11.48,2.22,16.81,4.28C443.775,315.287,463.455,341.697,464.115,372.787z" fill="#833989" data-original="#833989" class=""/>
		<g>
			<path style="" d="M391.845,271.064v32.66c0,11.957-7.884,22.064-18.743,25.42c-2.486,0.771-5.135,1.188-7.875,1.188     c-14.697,0-26.609-11.912-26.609-26.609v-32.66H391.845z" fill="#ea9d88" data-original="#ea9d88" class=""/>
			<path style="" d="M391.845,301.655v2.068c0,11.957-7.884,22.064-18.743,25.42     c-9.798-3.012-17.165-11.531-18.525-21.955c1.778,0.109,3.565,0.163,5.362,0.163c5.035,0,9.97-0.399,14.779-1.188     C380.641,305.212,386.366,303.688,391.845,301.655z" fill="#f6c2aa" data-original="#f6c2aa" class=""/>
		</g>
		<path style="" d="M292.229,217.538c0,12.32-9,22.535-20.784,24.431c-1.288,0.209-2.613,0.318-3.965,0.318    c-13.672,0-24.749-11.077-24.749-24.749s11.077-24.749,24.749-24.749c1.352,0,2.676,0.109,3.965,0.318    C283.229,195.003,292.229,205.218,292.229,217.538z" fill="#f6c2aa" data-original="#f6c2aa" class=""/>
		<path style="" d="M292.229,217.538c0,12.32-9,22.535-20.784,24.431c-2.141-7.784-3.284-15.976-3.284-24.431    s1.143-16.647,3.284-24.431C283.229,195.003,292.229,205.218,292.229,217.538z" fill="#ea9d88" data-original="#ea9d88" class=""/>
		<circle style="" cx="267.48" cy="217.538" r="8.845" fill="#ea9d88" data-original="#ea9d88" class=""/>
		<path style="" d="M438.233,217.538c0,12.32,9,22.535,20.784,24.431c1.288,0.209,2.613,0.318,3.965,0.318    c13.672,0,24.749-11.077,24.749-24.749s-11.077-24.749-24.749-24.749c-1.352,0-2.676,0.109-3.965,0.318    C447.233,195.003,438.233,205.218,438.233,217.538z" fill="#f6c2aa" data-original="#f6c2aa" class=""/>
		<path style="" d="M438.233,217.538c0,12.32,9,22.535,20.784,24.431c2.141-7.784,3.284-15.976,3.284-24.431    s-1.143-16.647-3.284-24.431C447.233,195.003,438.233,205.218,438.233,217.538z" fill="#ea9d88" data-original="#ea9d88" class=""/>
		<path style="" d="M457.313,169.323v35.064c0,45.821-33.475,83.835-77.305,90.889    c-0.147,0.025-0.303,0.049-0.451,0.074c-4.662,0.745-9.446,1.114-14.329,1.114c-50.851,0-92.077-41.225-92.077-92.077v-35.064    c0-10.708,1.827-20.998,5.202-30.558c12.592-35.835,46.739-61.526,86.874-61.526h0.008c4.875,0,9.667,0.377,14.337,1.114    C423.617,85.234,457.313,123.346,457.313,169.323z" fill="#ea9d88" data-original="#ea9d88" class=""/>
		<circle style="" cx="462.982" cy="217.538" r="8.845" fill="#ea9d88" data-original="#ea9d88" class=""/>
		<path style="" d="M457.313,169.322v35.064c0,45.821-33.475,83.835-77.305,90.889    c-0.148,0.025-0.303,0.049-0.451,0.074c-44.043-6.882-77.731-44.994-77.731-90.962v-35.064c0-45.977,33.696-84.089,77.748-90.971    C423.617,85.234,457.313,123.346,457.313,169.322z" fill="#f6c2aa" data-original="#f6c2aa" class=""/>
		<path style="" d="M375.675,225.326h-20.891c-2.489,0-4.506-2.017-4.506-4.506v0c0-2.489,2.017-4.506,4.506-4.506    h20.891c2.489,0,4.506,2.017,4.506,4.506v0C380.181,223.308,378.164,225.326,375.675,225.326z" fill="#ea9d88" data-original="#ea9d88" class=""/>
		<g>
			<circle style="" cx="335.176" cy="199.025" r="10.446" fill="#233559" data-original="#233559" class=""/>
			<circle style="" cx="395.288" cy="199.025" r="10.446" fill="#233559" data-original="#233559" class=""/>
		</g>
		<g>
			<circle style="" cx="339.016" cy="197.181" r="4.476" fill="#ffffff" data-original="#ffffff" class=""/>
			<circle style="" cx="399.641" cy="197.181" r="4.476" fill="#ffffff" data-original="#ffffff" class=""/>
		</g>
		<path style="" d="M459.025,64.302v128.804c-4.997-2.237-9.282-5.628-12.567-9.815    c-3.285-4.178-5.571-9.143-6.562-14.525l-4.391-23.857c-2.138-11.584-13.46-19.089-24.963-16.533l-28.945,6.431    c-10.773,2.4-21.948,2.4-32.721,0l-26.241-5.833l-2.704-0.598c-11.502-2.556-22.824,4.948-24.963,16.533l-4.391,23.857    c-1.983,10.765-9.143,19.867-19.13,24.34V64.302c0,0,15.025,0,37.514,0h112.55C444,64.302,459.025,64.302,459.025,64.302z" fill="#ffdf57" data-original="#ffdf57" class=""/>
		<path style="" d="M308.961,64.302c0,10.364-8.397,18.761-18.761,18.761c-10.355,0-18.753-8.397-18.753-18.761    s8.397-18.761,18.753-18.761C300.564,45.541,308.961,53.938,308.961,64.302z" fill="#233559" data-original="#233559" class=""/>
		<path style="" d="M346.475,64.302c0,10.364-8.397,18.761-18.753,18.761c-1.761,0-3.474-0.246-5.088-0.704    c-7.889-2.212-13.673-9.454-13.673-18.057s5.784-15.845,13.673-18.057c1.614-0.459,3.326-0.704,5.088-0.704    C338.078,45.541,346.475,53.938,346.475,64.302z" fill="#ffdf57" data-original="#ffdf57" class=""/>
		<circle style="" cx="365.236" cy="64.302" r="18.758" fill="#ffdf57" data-original="#ffdf57" class=""/>
		<circle style="" cx="402.753" cy="64.302" r="18.758" fill="#ffdf57" data-original="#ffdf57" class=""/>
		<circle style="" cx="440.27" cy="64.302" r="18.758" fill="#ffdf57" data-original="#ffdf57" class=""/>
		<path style="" d="M308.961,64.302v64.607c-6.988,2.286-12.559,8.225-13.993,16l-4.391,23.857    c-1.983,10.765-9.143,19.867-19.13,24.34V64.302c0-10.364,8.397-18.761,18.753-18.761    C300.564,45.541,308.961,53.938,308.961,64.302z" fill="#e8aa1a" data-original="#e8aa1a" class=""/>
		<path style="" d="M463.175,374.387c-10.15,16.99-22.31,32.65-36.14,46.65v-46.65H463.175z" fill="#f6c2aa" data-original="#f6c2aa" class=""/>
		<path style="" d="M463.175,374.387c-1.99,3.33-4.06,6.61-6.21,9.84h-29.93v-9.84H463.175z" fill="#f2efea" data-original="#f2efea"/>
		<rect x="249.171" y="300.287" style="" width="11.077" height="57.73" fill="#f2efea" data-original="#f2efea"/>
		<path style="" d="M398.509,234.867c0,5.864-1.565,11.376-4.318,16.14c-5.706,9.939-16.53,16.653-28.953,16.653    s-23.258-6.714-28.964-16.653c-2.753-4.764-4.318-10.276-4.318-16.14H398.509z" fill="#ffffff" data-original="#ffffff" class=""/>
	</g>
	<g>
		<path style="" d="M228.375,366.397v26.81h-19.59v96.72c-58.09-10.51-109.04-41.51-145.12-85.24    c-0.35-0.42-0.7-0.85-1.04-1.27c-9.38-11.52-17.73-23.91-24.91-37.02c-3.78-6.91-7.24-14.02-10.36-21.31    c8.68-30.19,35.35-52.76,67.66-55.37c2.08-0.17,4.17-0.26,6.3-0.26h50.1c5.93,0,11.69,0.66,17.23,1.93    C202.855,299.217,228.375,329.837,228.375,366.397z" fill="#dd0d3e" data-original="#dd0d3e"/>
		<path style="" d="M228.375,366.408v26.8h0c-10.819,0-19.59,8.771-19.59,19.59v77.13    c-58.09-10.51-109.04-41.51-145.12-85.24v-38.29c0-5.45,0.57-10.77,1.65-15.9c2.19-10.48,6.53-20.17,12.52-28.6    c13.95-19.63,36.87-32.44,62.78-32.44h10.81C193.923,289.457,228.375,323.909,228.375,366.408z" fill="#f73a65" data-original="#f73a65" class=""/>
		<path style="" d="M170.599,291.861v6.938c0,24.424-19.801,44.225-44.225,44.225h-0.008    c-19.235,0-35.613-12.288-41.689-29.444c-1.64-4.623-2.535-9.592-2.535-14.781v-6.93c4.166-1.073,8.468-1.8,12.88-2.155    c2.079-0.169,4.175-0.254,6.296-0.254h50.107c5.924,0,11.688,0.659,17.223,1.927C169.297,291.539,169.956,291.691,170.599,291.861    z" fill="#d39272" data-original="#d39272" class=""/>
		<path style="" d="M140.622,289.46c-22.041,0-41.918,9.271-55.947,24.12c-1.64-4.623-2.535-9.592-2.535-14.781v-6.93    c4.166-1.073,8.468-1.8,12.88-2.155c2.079-0.169,4.175-0.254,6.296-0.254H140.622z" fill="#bf7c5e" data-original="#bf7c5e" class=""/>
		<g>
			<path style="" d="M153.82,259.821v33.69c0,12.334-8.133,22.76-19.335,26.222c-2.564,0.796-5.297,1.226-8.123,1.226     c-15.161,0-27.448-12.288-27.448-27.448v-33.69H153.82z" fill="#bf7c5e" data-original="#bf7c5e" class=""/>
			<path style="" d="M153.82,291.377v2.134c0,12.334-8.133,22.76-19.335,26.222     c-10.107-3.107-17.706-11.895-19.11-22.647c1.834,0.112,3.678,0.168,5.531,0.168c5.194,0,10.285-0.412,15.245-1.226     C142.262,295.046,148.167,293.474,153.82,291.377z" fill="#d39272" data-original="#d39272" class=""/>
		</g>
		<path style="" d="M51.06,204.605c0,12.709-9.284,23.246-21.44,25.202c-1.329,0.215-2.695,0.328-4.09,0.328    c-14.103,0-25.53-11.427-25.53-25.53c0-14.103,11.427-25.53,25.53-25.53c1.394,0,2.761,0.112,4.09,0.328    C41.776,181.359,51.06,191.897,51.06,204.605z" fill="#d39272" data-original="#d39272" class=""/>
		<path style="" d="M51.06,204.605c0,12.709-9.284,23.246-21.44,25.202c-2.209-8.03-3.388-16.48-3.388-25.202    c0-8.722,1.179-17.173,3.388-25.202C41.776,181.359,51.06,191.897,51.06,204.605z" fill="#bf7c5e" data-original="#bf7c5e" class=""/>
		<circle style="" cx="25.53" cy="204.605" r="9.124" fill="#bf7c5e" data-original="#bf7c5e" class=""/>
		<path style="" d="M201.672,204.605c0,12.709,9.284,23.246,21.44,25.202c1.329,0.215,2.695,0.328,4.09,0.328    c14.103,0,25.53-11.427,25.53-25.53c0-14.103-11.427-25.53-25.53-25.53c-1.394,0-2.761,0.112-4.09,0.328    C210.956,181.359,201.672,191.897,201.672,204.605z" fill="#d39272" data-original="#d39272" class=""/>
		<path style="" d="M201.672,204.605c0,12.709,9.284,23.246,21.44,25.202c2.209-8.03,3.388-16.48,3.388-25.202    c0-8.722-1.179-17.173-3.388-25.202C210.956,181.359,201.672,191.897,201.672,204.605z" fill="#bf7c5e" data-original="#bf7c5e" class=""/>
		<path style="" d="M221.354,154.868v36.171c0,47.267-34.531,86.481-79.745,93.757    c-0.152,0.025-0.313,0.051-0.465,0.076c-4.809,0.769-9.744,1.149-14.781,1.149c-52.456,0-94.982-42.526-94.982-94.982v-36.171    c0-11.046,1.885-21.66,5.367-31.523c12.989-36.965,48.214-63.468,89.616-63.468h0.008c5.028,0,9.972,0.389,14.789,1.149    C186.594,68.126,221.354,107.441,221.354,154.868z" fill="#bf7c5e" data-original="#bf7c5e" class=""/>
		<circle style="" cx="227.202" cy="204.605" r="9.124" fill="#bf7c5e" data-original="#bf7c5e" class=""/>
		<path style="" d="M221.354,154.868v36.171c0,47.267-34.531,86.481-79.745,93.757    c-0.152,0.025-0.313,0.051-0.465,0.076c-45.433-7.099-80.184-46.414-80.184-93.833v-36.171c0-47.428,34.76-86.742,80.201-93.841    C186.594,68.126,221.354,107.441,221.354,154.868z" fill="#d39272" data-original="#d39272" class=""/>
		<path style="" d="M126.365,237.82c-7.954,0-15.908-1.993-23.158-5.979c-2.045-1.124-2.792-3.693-1.667-5.739    c1.124-2.045,3.694-2.791,5.738-1.667c11.952,6.57,26.222,6.57,38.173,0c2.044-1.124,4.614-0.378,5.738,1.667    c1.124,2.045,0.378,4.614-1.667,5.739C142.272,235.827,134.318,237.82,126.365,237.82z" fill="#bf7c5e" data-original="#bf7c5e" class=""/>
		<path style="" d="M137.14,212.639h-21.55c-2.567,0-4.648-2.081-4.648-4.648v0c0-2.567,2.081-4.648,4.648-4.648h21.55    c2.567,0,4.648,2.081,4.648,4.648v0C141.788,210.558,139.707,212.639,137.14,212.639z" fill="#bf7c5e" data-original="#bf7c5e" class=""/>
		<g>
			<circle style="" cx="95.362" cy="185.508" r="10.775" fill="#233559" data-original="#233559" class=""/>
			<circle style="" cx="157.372" cy="185.508" r="10.775" fill="#233559" data-original="#233559" class=""/>
		</g>
		<g>
			<circle style="" cx="99.324" cy="183.606" r="4.617" fill="#ffffff" data-original="#ffffff" class=""/>
			<circle style="" cx="161.862" cy="183.606" r="4.617" fill="#ffffff" data-original="#ffffff" class=""/>
		</g>
		<path style="" d="M62.625,366.397v37.02c-9.38-11.52-17.73-23.91-24.91-37.02H62.625z" fill="#bf7c5e" data-original="#bf7c5e" class=""/>
		<path style="" d="M220.791,104.321v51.459H30.818v-51.459c0-31.514,26.236-57.071,58.609-57.071h72.755    C194.555,47.251,220.791,72.807,220.791,104.321z" fill="#dd0d3e" data-original="#dd0d3e"/>
		<path style="" d="M220.791,104.321v51.459H75.081v-51.459c0-31.514,26.236-57.071,58.609-57.071h28.493    C194.555,47.251,220.791,72.807,220.791,104.321z" fill="#f73a65" data-original="#f73a65" class=""/>
		<path style="" d="M80.319,100.284h25.192c11.208,0,20.293,9.086,20.293,20.293v18.297H60.026v-18.297    C60.026,109.37,69.112,100.284,80.319,100.284z" fill="#151a1c" data-original="#151a1c" class=""/>
		<path style="" d="M282.352,131.76h-64.054v24.018h64.054c6.632,0,12.009-5.377,12.009-12.009v0    C294.361,137.137,288.984,131.76,282.352,131.76z" fill="#f73a65" data-original="#f73a65" class=""/>
	</g>
	<path style="" d="M79.653,308.6l-7.648,14.304c-2.532,4.736-6.737,7.998-11.501,9.442   c-3.122,0.939-6.486,1.102-9.768,0.39c-1.717-0.374-3.409-0.984-5.04-1.856c-9.471-5.064-13.041-16.839-7.977-26.31l7.648-14.304   c5.064-9.471,16.838-13.041,26.31-7.977c1.632,0.872,3.079,1.941,4.343,3.161C82.116,291.332,83.845,300.761,79.653,308.6z" fill="#ea9d88" data-original="#ea9d88" class=""/>
	<path style="" d="M79.653,308.6l-7.648,14.304c-2.532,4.736-6.737,7.998-11.501,9.442   c-3.122,0.939-6.486,1.102-9.768,0.39c-6.098-5.88-7.826-15.309-3.634-23.149l7.648-14.304c4.192-7.84,12.993-11.639,21.269-9.833   C82.116,291.332,83.845,300.761,79.653,308.6z" fill="#f6c2aa" data-original="#f6c2aa" class=""/>
	<path style="" d="M461.455,318.98l7.137,14.565c2.363,4.822,2.553,10.141,0.94,14.851   c-1.062,3.082-2.896,5.907-5.392,8.154c-1.306,1.175-2.79,2.191-4.452,3.005c-9.644,4.726-21.285,0.741-26.011-8.903l-7.137-14.565   c-4.726-9.644-0.741-21.285,8.903-26.011c1.661-0.814,3.374-1.364,5.103-1.676C448.882,306.889,457.544,310.997,461.455,318.98z" fill="#bf7c5e" data-original="#bf7c5e" class=""/>
	<path style="" d="M461.455,318.98l7.137,14.565c2.363,4.822,2.553,10.141,0.94,14.851   c-1.062,3.082-2.896,5.907-5.392,8.154c-8.335,1.512-16.996-2.596-20.908-10.58l-7.137-14.565   c-3.912-7.983-1.851-17.345,4.452-23.005C448.882,306.889,457.544,310.997,461.455,318.98z" fill="#d39272" data-original="#d39272" class=""/>
	<path style="" d="M210.511,317.115c11.609,11.609,21.376,23.165,38.66,23.165l-5.521,20.344l-43.004-3.909" fill="#f73a65" data-original="#f73a65" class=""/>
</g>















</g>
</svg>
